<?xml version="1.0" encoding="utf-8"?>
<!-- Generator: Adobe Illustrator 22.1.0, SVG Export Plug-In . SVG Version: 6.00 Build 0)  -->
<svg version="1.1" id="Слой_1" xmlns="http://www.w3.org/2000/svg" xmlns:xlink="http://www.w3.org/1999/xlink" x="0px" y="0px"
	 width="237px" height="64px" viewBox="0 0 237 64" enable-background="new 0 0 237 64" xml:space="preserve">
<g>
	<polygon fill="#333333" points="32.0012741,64.0009766 0.001275,32.0009766 32.0012741,0.0019531 54.3582077,22.3583984 
		52.9539108,23.7626953 32.0012741,2.8105469 2.8108454,32.0009766 32.0012741,61.1923828 52.9534225,40.2402344 
		54.3577194,41.6445313 	"/>
</g>
<g>
	<polygon fill="#F7C51D" points="44.4763718,58.7675781 27.3528366,41.6445313 28.7571335,40.2402344 44.4763718,55.9589844 
		60.1960983,40.2402344 61.6003952,41.6445313 	"/>
</g>
<g>
	<polygon fill="#F7C51D" points="28.7546921,23.7646484 27.3503952,22.3603516 44.4763718,5.234375 61.6003952,22.3583984 
		60.1960983,23.7626953 44.4763718,8.0429688 	"/>
</g>
<g>
	<rect x="48.4929733" y="52.2910156" fill="#F7C51D" width="128.0722656" height="1.9863281"/>
</g>
<g>
	<rect x="56.690239" y="17.8837891" fill="#F7C51D" width="119.875" height="1.9863281"/>
</g>
<g>
	<path fill="#F7C51D" d="M16.4294968,28.1259766h-3.8256826v-2.4345703h10.9809561l-0.7729492,2.4345703h-3.3500977v10.0039063
		h-3.0322266V28.1259766z"/>
	<path fill="#F7C51D" d="M25.5632858,25.6914063h3.6469727c1.1694336,0,2.1801758,0.1503906,2.9926758,0.5097656
		c1.4667969,0.6416016,2.2797852,1.8867188,2.2797852,3.6611328c0,1.4345703-0.6542969,3.0390625-2.7158203,3.7753906
		c-0.7529297,0.2646484-1.6845703,0.4150391-2.8344727,0.4150391h-0.3369141v4.0771484h-3.0322266V25.6914063z
		 M29.1111374,31.7314453c0.5151367,0,0.9511719-0.0566406,1.2880859-0.2080078
		c0.6342773-0.2832031,0.9316406-0.8681641,0.9316406-1.6611328c0-0.6416016-0.2773438-1.2451172-0.8916016-1.5849609
		c-0.3374023-0.1894531-0.7929688-0.2646484-1.3876953-0.2646484h-0.4560547v3.71875H29.1111374z"/>
	<path fill="#F7C51D" d="M37.8679733,38.2050781v-2.3779297c0.2773438,0.0566406,0.6342773,0.0947266,0.9116211,0.0947266
		c1.0507813,0,1.3876953-0.4345703,2.0615234-1.4726563l-4.7768555-8.7578125h3.3496094l2.9931641,5.9453125h0.0395508
		l2.6166992-5.9453125h3.3295898l-4.6181641,9.1923828c-1.2885742,2.5664063-2.715332,3.4345703-4.6582031,3.4345703
		C38.8591843,38.3183594,38.3040085,38.2998047,37.8679733,38.2050781z"/>
	<path fill="#F7C51D" d="M50.4104538,25.6914063h8.9194336l-0.7333984,2.3212891h-5.1538086v2.2646484h0.8129883
		c1.387207,0,2.6953125,0.1699219,3.706543,0.6992188c1.1098633,0.5654297,1.8432617,1.5664063,1.8432617,3.1894531
		c0,2.2460938-1.4072266,3.9638672-5.5302734,3.9638672h-3.8647461V25.6914063z M54.3347702,35.7890625
		c1.7641602,0,2.4379883-0.5097656,2.4379883-1.5849609c0-0.6044922-0.237793-1.0009766-0.6142578-1.2275391
		c-0.4760742-0.2832031-1.1694336-0.3583984-1.902832-0.3583984h-0.8129883v3.1708984H54.3347702z"/>
	<path fill="#F7C51D" d="M62.080864,31.9384766c0-3.7744141,2.7548828-6.3798828,6.7392578-6.3798828
		c3.9838867,0,6.7387695,2.6054688,6.7387695,6.3798828c0,3.7753906-2.7548828,6.3798828-6.7387695,6.3798828
		C64.8357468,38.3183594,62.080864,35.7138672,62.080864,31.9384766z M72.3284225,31.9384766
		c0-2.6425781-1.4472656-3.9824219-3.5083008-3.9824219c-2.0615234,0-3.5087891,1.3398438-3.5087891,3.9824219
		s1.4472656,3.9833984,3.5087891,3.9833984C70.8811569,35.921875,72.3284225,34.5810547,72.3284225,31.9384766z"/>
	<path fill="#F7C51D" d="M78.527153,25.6914063h11.0795898v12.4384766h-3.0322266V28.1259766h-5.0151367v10.0039063H78.527153
		V25.6914063z"/>
	<path fill="#F7C51D" d="M93.0710983,25.6914063h3.6469727c1.1694336,0,2.1801758,0.1503906,2.9926758,0.5097656
		c1.4667969,0.6416016,2.2797852,1.8867188,2.2797852,3.6611328c0,1.4345703-0.6542969,3.0390625-2.7158203,3.7753906
		c-0.7529297,0.2646484-1.6845703,0.4150391-2.8344727,0.4150391h-0.3369141v4.0771484h-3.0322266V25.6914063z
		 M96.6189499,31.7314453c0.5151367,0,0.9511719-0.0566406,1.2880859-0.2080078
		c0.6342773-0.2832031,0.9316406-0.8681641,0.9316406-1.6611328c0-0.6416016-0.2773438-1.2451172-0.8916016-1.5849609
		c-0.3374023-0.1894531-0.7929688-0.2646484-1.3876953-0.2646484h-0.4560547v3.71875H96.6189499z"/>
	<path fill="#F7C51D" d="M104.4641647,31.9384766c0-3.7744141,2.7548828-6.3798828,6.7392578-6.3798828
		c3.9838867,0,6.7387695,2.6054688,6.7387695,6.3798828c0,3.7753906-2.7548828,6.3798828-6.7387695,6.3798828
		C107.2190475,38.3183594,104.4641647,35.7138672,104.4641647,31.9384766z M114.7117233,31.9384766
		c0-2.6425781-1.4472656-3.9824219-3.5083008-3.9824219c-2.0615234,0-3.5087891,1.3398438-3.5087891,3.9824219
		s1.4472656,3.9833984,3.5087891,3.9833984C113.2644577,35.921875,114.7117233,34.5810547,114.7117233,31.9384766z"/>
	<path fill="#F7C51D" d="M125.9841843,36.7705078c-3.5478516-0.3017578-5.5693359-1.90625-5.5693359-4.9257813
		c0-2.9072266,2.0810547-4.5869141,5.5693359-4.9267578v-1.5097656h3.0322342v1.5097656
		c3.4882813,0.3398438,5.5703125,2.0195313,5.5703125,4.9267578c0,3.0195313-2.0224609,4.6240234-5.5703125,4.9257813v1.6992188
		h-3.0322342V36.7705078z M125.9841843,29.3720703c-1.6650391,0.2265625-2.5175781,1.0185547-2.5175781,2.4726563
		c0,1.5097656,0.8125,2.2832031,2.5175781,2.4726563V29.3720703z M131.5339966,31.8447266
		c0-1.4541016-0.8525391-2.2460938-2.5175781-2.4726563v4.9453125
		C130.7214966,34.1279297,131.5339966,33.3544922,131.5339966,31.8447266z"/>
	<path fill="#F7C51D" d="M137.5535278,25.6914063h3.0332031v5.7568359c0,0.4902344,0,1.3964844-0.0400391,2.0380859h0.0400391
		c0.3759766-0.5283203,0.7529297-1,1.1689453-1.5097656l4.9755859-6.2851563h3.0322266v12.4384766h-3.0322266v-6.3232422
		c0-0.5283203,0-1.359375,0.0595703-1.7744141h-0.0400391c-0.4365234,0.5478516-0.8125,1.0380859-1.2285156,1.5478516
		l-5.1542969,6.5498047h-2.8144531V25.6914063z"/>
	<path fill="#F7C51D" d="M152.1365356,38.1484375v-2.6425781c0.1582031,0.0380859,0.3564453,0.0380859,0.3964844,0.0380859
		c0.515625,0,0.9511719-0.2265625,1.3076172-0.6796875c1.0908203-1.3583984,1.7451172-4.5673828,2.2402344-9.1728516h7.6113281
		v12.4384766h-3.0322266V28.0126953h-2.1210938c-0.4365234,4.3984375-1.3085938,7.4560547-2.5966797,8.9658203
		c-0.7333984,0.8681641-1.6845703,1.2460938-3.0126953,1.2460938
		C152.7703247,38.2246094,152.3738403,38.2050781,152.1365356,38.1484375z"/>
	<path fill="#F7C51D" d="M167.1560669,25.6914063h3.0332031v4.2841797h0.7128906
		c1.3486328,0,2.6171875,0.1894531,3.6279297,0.6796875c1.2089844,0.6044922,2.0214844,1.6425781,2.0214844,3.359375
		c0,2.3037109-1.4072266,4.1152344-5.5302734,4.1152344h-3.8652344V25.6914063z M171.0808716,35.7890625
		c1.7636719,0,2.4384766-0.6035156,2.4384766-1.7363281c0-0.6035156-0.21875-1.0195313-0.5751953-1.2832031
		c-0.4755859-0.3583984-1.1894531-0.453125-2.0019531-0.453125H170.18927v3.4726563H171.0808716z"/>
</g>
<g>
	<path fill="#333333" d="M66.2512741,48.0595703l-1.4726563-4.2412109h-0.027832
		c0.0395508,0.6298828,0.059082,1.2197266,0.059082,1.7714844v2.4697266h-0.7539063v-5.0791016H65.22686l1.4101563,4.0400391
		h0.0209961l1.4521484-4.0400391h1.1738281v5.0791016h-0.7988281v-2.5117188c0-0.2519531,0.0063477-0.5810547,0.019043-0.9863281
		s0.0239258-0.6503906,0.0332031-0.7363281h-0.027832l-1.5249023,4.234375H66.2512741z"/>
	<path fill="#333333" d="M79.3992233,48.0595703h-2.8730469v-5.0791016h2.8730469v0.7021484h-2.0429688v1.3828125h1.9140625
		v0.6943359h-1.9140625v1.5947266h2.0429688V48.0595703z"/>
	<path fill="#333333" d="M88.1565475,48.0595703h-0.8300781v-4.3662109h-1.4941406v-0.7128906h3.8178711v0.7128906h-1.4936523
		V48.0595703z"/>
	<path fill="#333333" d="M99.483696,48.0595703l-0.5073242-1.4101563h-1.9418945l-0.496582,1.4101563h-0.8754883
		l1.9003906-5.0996094h0.902832l1.9003906,5.0996094H99.483696z M98.7576218,45.9335938l-0.4760742-1.3828125
		c-0.034668-0.0927734-0.0825195-0.2382813-0.144043-0.4375s-0.1035156-0.3447266-0.1269531-0.4375
		c-0.0625,0.2851563-0.1538086,0.5957031-0.2744141,0.9345703l-0.4584961,1.3232422H98.7576218z"/>
	<path fill="#333333" d="M110.752739,48.0595703h-0.8305664v-4.3662109h-1.4448242
		c-0.1831055,1.4814453-0.3295898,2.4902344-0.4394531,3.0253906c-0.1103516,0.5351563-0.2646484,0.9072266-0.4638672,1.1171875
		c-0.1992188,0.2089844-0.4633789,0.3105469-0.7919922,0.3037109c-0.1689453,0-0.3300781-0.0292969-0.4829102-0.0869141v-0.6914063
		c0.1318359,0.0576172,0.2602539,0.0869141,0.3857422,0.0869141c0.1665039,0,0.296875-0.1005859,0.390625-0.3007813
		s0.1967773-0.6425781,0.309082-1.328125s0.2460938-1.6318359,0.4013672-2.8388672h2.9667969V48.0595703z"/>
	<path fill="#333333" d="M121.8093796,48.0595703h-0.8305664v-4.3662109h-1.4448242
		c-0.1831055,1.4814453-0.3295898,2.4902344-0.4394531,3.0253906c-0.1103516,0.5351563-0.2646484,0.9072266-0.4638672,1.1171875
		c-0.1992188,0.2089844-0.4633789,0.3105469-0.7919922,0.3037109c-0.1689453,0-0.3300781-0.0292969-0.4829102-0.0869141v-0.6914063
		c0.1318359,0.0576172,0.2602539,0.0869141,0.3857422,0.0869141c0.1665039,0,0.296875-0.1005859,0.390625-0.3007813
		s0.1967773-0.6425781,0.309082-1.328125s0.2460938-1.6318359,0.4013672-2.8388672h2.9667969V48.0595703z"/>
	<path fill="#333333" d="M133.5632935,45.5136719c0,0.8261719-0.2070313,1.46875-0.6201172,1.9277344
		c-0.4130859,0.4580078-0.9990234,0.6875-1.7558594,0.6875c-0.7666016,0-1.3554688-0.2275391-1.7666016-0.6826172
		s-0.6171875-1.1015625-0.6171875-1.9404297c0-0.8378906,0.2070313-1.4814453,0.6201172-1.9306641
		c0.4140625-0.4492188,1.0039063-0.6738281,1.7705078-0.6738281c0.7548828,0,1.3378906,0.2275391,1.7509766,0.6835938
		C133.3572388,44.0419922,133.5632935,44.6845703,133.5632935,45.5136719z M129.6863403,45.5136719
		c0,0.625,0.1259766,1.0986328,0.3789063,1.421875c0.2519531,0.3232422,0.6259766,0.484375,1.1220703,0.484375
		c0.4931641,0,0.8652344-0.1591797,1.1162109-0.4785156c0.2519531-0.3203125,0.3769531-0.7958984,0.3769531-1.4277344
		c0-0.6230469-0.1240234-1.0957031-0.3730469-1.4179688c-0.2490234-0.3212891-0.6201172-0.4824219-1.1132813-0.4824219
		c-0.4980469,0-0.8740234,0.1611328-1.1279297,0.4824219C129.8132935,44.4179688,129.6863403,44.890625,129.6863403,45.5136719z"/>
	<path fill="#333333" d="M143.9949341,46.53125c0,1.0185547-0.6533203,1.5283203-1.9599609,1.5283203h-1.4755859v-5.0791016
		h3.0986328v0.7128906h-2.2685547v1.3505859h0.6044922C143.3279419,45.0439453,143.9949341,45.5400391,143.9949341,46.53125z
		 M141.3894653,47.3613281h0.5976563c0.3974609,0,0.6894531-0.0654297,0.875-0.1962891s0.2783203-0.3417969,0.2783203-0.6337891
		c0-0.2802734-0.09375-0.4824219-0.2802734-0.6064453s-0.5107422-0.1855469-0.9746094-0.1855469h-0.4960938V47.3613281z"/>
	<path fill="#333333" d="M154.0613403,48.0595703l-0.5068359-1.4101563h-1.9423828l-0.4970703,1.4101563h-0.875l1.9003906-5.0996094
		h0.9033203l1.8994141,5.0996094H154.0613403z M153.3347778,45.9335938l-0.4755859-1.3828125
		c-0.0341797-0.0927734-0.0830078-0.2382813-0.1435547-0.4375c-0.0615234-0.1992188-0.1044922-0.3447266-0.1269531-0.4375
		c-0.0625,0.2851563-0.1542969,0.5957031-0.2744141,0.9345703l-0.4589844,1.3232422H153.3347778z"/>
	<path fill="#333333" d="M164.7390747,44.1689453c0,0.3310547-0.109375,0.6025391-0.328125,0.8125
		c-0.21875,0.2109375-0.5214844,0.3457031-0.9082031,0.4033203v0.0205078
		c0.4443359,0.0537109,0.7832031,0.1845703,1.015625,0.3945313c0.2333984,0.2099609,0.3496094,0.4833984,0.3496094,0.8212891
		c0,0.4726563-0.1845703,0.8417969-0.5546875,1.1083984c-0.3691406,0.2666016-0.8789063,0.3994141-1.5302734,0.3994141
		c-0.6757813,0-1.2167969-0.0917969-1.6220703-0.2744141v-0.7255859c0.2246094,0.1064453,0.4765625,0.1884766,0.7558594,0.2460938
		c0.2792969,0.0585938,0.5341797,0.0869141,0.765625,0.0869141c0.8916016,0,1.3378906-0.2919922,1.3378906-0.875
		c0-0.2685547-0.1337891-0.4736328-0.4013672-0.6152344c-0.2675781-0.140625-0.6640625-0.2119141-1.1894531-0.2119141h-0.6123047
		v-0.6669922h0.5732422c1.0126953,0,1.5185547-0.2695313,1.5185547-0.8095703c0-0.2148438-0.0859375-0.3857422-0.2587891-0.5107422
		s-0.4140625-0.1875-0.7246094-0.1875c-0.2451172,0-0.4794922,0.0332031-0.7011719,0.0976563
		c-0.2226563,0.0644531-0.453125,0.1748047-0.6914063,0.3300781l-0.3789063-0.5625
		c0.5214844-0.3613281,1.1347656-0.5419922,1.8408203-0.5419922c0.5371094,0,0.9628906,0.1142578,1.2753906,0.34375
		S164.7390747,43.7871094,164.7390747,44.1689453z"/>
	<path fill="#333333" d="M174.9412231,48.0595703l-0.5068359-1.4101563h-1.9423828l-0.4970703,1.4101563h-0.875l1.9003906-5.0996094
		h0.9033203l1.8994141,5.0996094H174.9412231z M174.2146606,45.9335938l-0.4755859-1.3828125
		c-0.0341797-0.0927734-0.0830078-0.2382813-0.1435547-0.4375c-0.0615234-0.1992188-0.1044922-0.3447266-0.1269531-0.4375
		c-0.0625,0.2851563-0.1542969,0.5957031-0.2744141,0.9345703l-0.4589844,1.3232422H174.2146606z"/>
</g>
</svg>
